<?xml version="1.0" encoding="UTF-8"?>
<!DOCTYPE svg PUBLIC "-//W3C//DTD SVG 1.1//EN" "http://www.w3.org/Graphics/SVG/1.1/DTD/svg11.dtd">
<!-- Creator: CorelDRAW X7 -->
<svg xmlns="http://www.w3.org/2000/svg" xml:space="preserve" width="72.6874mm" height="72.7237mm" version="1.1" style="shape-rendering:geometricPrecision; text-rendering:geometricPrecision; image-rendering:optimizeQuality; fill-rule:evenodd; clip-rule:evenodd"
viewBox="0 0 6013 6016"
 xmlns:xlink="http://www.w3.org/1999/xlink">
 <defs>
  <style type="text/css">
   <![CDATA[
    .fil0 {fill:#FEFEFE}
   ]]>
  </style>
 </defs>
 <g id="Capa_x0020_1">
  <metadata id="CorelCorpID_0Corel-Layer"/>
  <path class="fil0" d="M1324 0l3365 0c727,0 1324,597 1324,1324l0 3365c0,730 -597,1327 -1324,1327l-3365 0c-730,0 -1324,-597 -1324,-1327l0 -3365c0,-727 594,-1324 1324,-1324zm1972 2326l0 -290c0,-140 94,-173 160,-173 64,0 406,0 406,0l0 -621 -560 0c-621,0 -761,460 -761,757l0 327 -360 0 0 724 364 0c0,821 0,1809 0,1809l723 0c0,0 0,-1000 0,-1809l537 0 24 -284 42 -440 -575 0z"/>
 </g>
</svg>
