<?xml version="1.0" encoding="UTF-8"?>
<!DOCTYPE svg PUBLIC "-//W3C//DTD SVG 1.1//EN" "http://www.w3.org/Graphics/SVG/1.1/DTD/svg11.dtd">
<!-- Creator: CorelDRAW X7 -->
<svg xmlns="http://www.w3.org/2000/svg" xml:space="preserve" width="72.7236mm" height="72.723mm" version="1.1" style="shape-rendering:geometricPrecision; text-rendering:geometricPrecision; image-rendering:optimizeQuality; fill-rule:evenodd; clip-rule:evenodd"
viewBox="0 0 2004 2004"
 xmlns:xlink="http://www.w3.org/1999/xlink">
 <defs>
  <style type="text/css">
   <![CDATA[
    .fil0 {fill:#FEFEFE}
   ]]>
  </style>
 </defs>
 <g id="Capa_x0020_1">
  <metadata id="CorelCorpID_0Corel-Layer"/>
  <path class="fil0" d="M441 0l1122 0c243,0 441,199 441,441l0 1121c0,244 -198,442 -441,442l-1122 0c-242,0 -441,-198 -441,-442l0 -1121c0,-242 199,-441 441,-441zm267 437c-149,0 -271,122 -271,271l0 588c0,150 122,271 271,271l588 0c150,0 271,-121 271,-271l0 -588c0,-149 -121,-271 -271,-271l-588 0zm588 1247l-588 0c-214,0 -388,-174 -388,-388l0 -588c0,-214 174,-388 388,-388l588 0c214,0 388,174 388,388l0 588c0,214 -174,388 -388,388zm-294 -914c-128,0 -232,104 -232,232 0,128 104,233 232,233 128,0 233,-105 233,-233 0,-128 -105,-232 -233,-232zm0 582c-192,0 -349,-157 -349,-350 0,-192 157,-349 349,-349 193,0 350,157 350,349 0,193 -157,350 -350,350zm448 -719c0,46 -37,84 -83,84 -47,0 -84,-38 -84,-84 0,-46 37,-84 84,-84 46,0 83,38 83,84z"/>
 </g>
</svg>
