<?xml version="1.0" encoding="UTF-8"?>
<!DOCTYPE svg PUBLIC "-//W3C//DTD SVG 1.1//EN" "http://www.w3.org/Graphics/SVG/1.1/DTD/svg11.dtd">
<!-- Creator: CorelDRAW X7 -->
<svg xmlns="http://www.w3.org/2000/svg" xml:space="preserve" width="72.6867mm" height="72.7237mm" version="1.1" style="shape-rendering:geometricPrecision; text-rendering:geometricPrecision; image-rendering:optimizeQuality; fill-rule:evenodd; clip-rule:evenodd"
viewBox="0 0 5998 6001"
 xmlns:xlink="http://www.w3.org/1999/xlink">
 <defs>
  <style type="text/css">
   <![CDATA[
    .fil0 {fill:#FEFEFE}
   ]]>
  </style>
 </defs>
 <g id="Capa_x0020_1">
  <metadata id="CorelCorpID_0Corel-Layer"/>
  <path class="fil0" d="M1321 0l3357 0c728,0 1320,595 1320,1321l0 3357c0,728 -592,1323 -1320,1323l-3357 0c-729,0 -1321,-595 -1321,-1323l0 -3357c0,-726 592,-1321 1321,-1321zm3631 3025c0,1085 -879,1965 -1965,1965 -1085,0 -1965,-880 -1965,-1965 0,-1085 880,-1965 1965,-1965 1086,0 1965,880 1965,1965zm-2362 1132c960,0 1485,-795 1485,-1485 0,-22 -1,-45 -1,-67 101,-74 190,-166 260,-270 -94,41 -194,69 -300,82 108,-65 191,-167 230,-289 -101,60 -213,103 -332,127 -95,-102 -231,-165 -381,-165 -288,0 -521,234 -521,522 0,41 4,81 13,119 -434,-22 -818,-230 -1075,-545 -45,77 -71,166 -71,262 0,181 92,341 232,434 -85,-2 -166,-26 -236,-65l-1 7c0,252 180,463 419,511 -44,12 -90,18 -137,18 -34,0 -67,-3 -98,-9 66,207 259,358 487,362 -179,140 -404,224 -648,224 -42,0 -84,-3 -124,-7 230,148 505,234 799,234z"/>
 </g>
</svg>
